<?xml version="1.0" encoding="UTF-8" standalone="no"?>
<!DOCTYPE svg PUBLIC "-//W3C//DTD SVG 1.1//EN" "http://www.w3.org/Graphics/SVG/1.1/DTD/svg11.dtd">
<svg version="1.1" xmlns="http://www.w3.org/2000/svg" xmlns:xlink="http://www.w3.org/1999/xlink" preserveAspectRatio="xMidYMid meet" viewBox="0 0 640 640" width="640" height="640"><defs><path d="M320 10.49C181.93 10.49 70 122.42 70 260.49C70 398.56 181.93 510.49 320 510.49C458.07 510.49 570 398.56 570 260.49C570 122.42 458.07 10.49 320 10.49Z" id="a8oPzuCRP"></path><path d="M147.5 186.49C156 185.99 161 189.99 162 198.49C167 233.49 173 262.99 179 287.49C182.65 280.49 211.85 224.49 215.5 217.49C219 210.99 223 207.99 228 207.49C235.5 206.99 240 211.49 241.5 221.49C245.5 243.99 251 262.49 257.5 278.99C262 236.49 269 205.49 279.5 186.99C282 182.49 285.5 179.99 290.5 179.49C294.5 178.99 298 180.49 301 182.99C304 185.49 306 188.49 306 192.49C306 195.49 305.5 197.99 304.5 200.49C298 212.49 292.5 232.99 288 260.99C284 288.49 282.5 309.49 283.5 324.99C284 328.99 283 332.99 281.5 335.99C279.5 339.49 276.5 341.49 272.5 341.99C268 342.49 263.5 340.49 259.5 335.99C244 319.99 231.5 296.49 222.5 264.49C211.5 285.99 203.5 301.99 198.5 312.99C188.5 331.99 180 341.49 173 341.99C168.5 342.49 164.5 338.49 161.5 330.49C153 308.49 143.5 265.99 134 202.99C134 198.49 135 194.49 137 191.49C139.5 188.49 143 186.49 147.5 186.49Z" id="c1tabM90Qi"></path><path d="M470.5 198.49C467.5 197.99 464.5 197.49 461.5 197.49C445.5 197.49 432.5 205.99 422 222.49C413.5 236.99 409 252.49 409 269.99C409 282.99 411.5 293.99 417 302.99C423 313.49 432 319.99 444 322.49C447 322.99 450 323.49 453 323.49C469.5 323.49 482.5 314.99 492.5 298.49C501 283.99 505.5 268.49 505.5 250.99C505.5 237.99 503 226.99 497.5 217.99C497.5 217.99 497.5 217.99 497.5 217.99C487.5 206.65 478.5 200.15 470.5 198.49ZM464 289.49C459 293.99 454.5 295.49 450.5 294.99C446.5 293.99 443 290.49 440.5 283.99C438.5 278.99 437.5 273.49 437.5 268.49C437.5 264.49 438 259.99 438.5 256.49C440 249.49 443 242.99 447.5 236.49C453 228.49 459 224.99 465 225.99C469 226.99 472.5 230.49 475 236.99C477 241.99 478 247.49 478 252.49C477.5 255.99 477 260.49 476.5 264.49C476.5 264.49 476.5 264.49 476.5 264.49C472.17 277.49 468 285.82 464 289.49Z" id="drxhHbG4M"></path><path d="M365.5 198.49C362.5 197.99 359.5 197.49 356.5 197.49C340.5 197.49 327.5 205.99 317 222.49C308.5 236.99 304 252.49 304 269.99C304 282.99 306.5 293.99 312 302.99C318 313.49 327 319.99 339 322.49C342 322.99 345 323.49 348 323.49C364.5 323.49 377.5 314.99 387.5 298.49C396 283.99 400.5 268.49 400.5 250.99C400.5 237.99 398 226.99 392.5 217.99C392.5 217.99 392.5 217.99 392.5 217.99C382.5 206.65 373.5 200.15 365.5 198.49ZM359 289.49C354 293.99 349.5 295.49 345.5 294.99C341.5 293.99 338 290.49 335.5 283.99C333.5 278.99 332.5 273.49 332.5 268.49C332.5 264.49 333 259.99 333.5 256.49C335 249.49 338 242.99 342.5 236.49C348 228.49 354 224.99 360 225.99C364 226.99 367.5 230.49 370 236.99C372 241.99 373 247.49 373 252.49C372.5 255.99 372 260.49 371.5 264.49C371.5 264.49 371.5 264.49 371.5 264.49C367.17 277.49 363 285.82 359 289.49Z" id="a2lMAyXYRe"></path><path d="M304.5 402.3L314.49 402.3L314.49 356.47L304.5 356.47L304.5 356.47L304.5 402.3ZM337.42 414.84L343.71 423.74L374.79 394.9L368.5 386L368.5 386L337.42 414.84ZM349.58 452.86L347.33 464.03L386.29 474.34L388.54 463.17L388.54 463.17L349.58 452.86ZM271.66 464.03L269.41 452.86L230.45 463.17L232.7 474.34L232.7 474.34L271.66 464.03ZM275.27 423.74L281.56 414.84L250.49 386L244.2 394.9L244.2 394.9L275.27 423.74ZM349.48 482.51C341.2 482.51 334.48 490.26 334.48 499.59C334.48 501.08 334.48 508.49 334.48 521.84L334.48 551.26L324.49 551.26L324.49 522.61C324.49 474.55 324.49 447.85 324.49 442.51C324.49 432.96 317.83 425.22 309.49 425.22C301.21 425.22 294.5 432.85 294.5 442.51C294.5 454.3 294.5 548.62 294.5 560.41C273.92 535.2 246.83 507.48 235.73 520.27C224.86 532.8 252.87 567.31 291.97 642.73C309.59 676.72 331.89 700.21 369.47 700.22C410.88 700.22 444.45 661.74 444.45 614.28C444.45 611.8 444.45 599.37 444.45 577.01C444.45 544.41 444.45 526.31 444.45 522.69C444.45 513.16 437.79 505.43 429.45 505.43C421.17 505.43 414.46 513.18 414.46 522.69C414.46 524.4 414.46 532.97 414.46 548.39L414.46 551.26L404.46 551.26L404.46 524.66C404.46 516.5 404.46 511.96 404.46 511.06C404.46 501.62 397.81 493.97 389.47 493.97C381.18 493.97 374.47 501.56 374.47 511.06C374.47 511.83 374.47 515.72 374.47 522.71L374.47 539.8L364.47 539.8L364.47 522.71L364.47 499.59L364.47 499.59C360.04 488.2 355.04 482.51 349.48 482.51Z" id="c8NPoeUQQ"></path></defs><g><g><g><use xlink:href="#a8oPzuCRP" opacity="1" fill="#9b5c8f" fill-opacity="1"></use><g><use xlink:href="#a8oPzuCRP" opacity="1" fill-opacity="0" stroke="#000000" stroke-width="1" stroke-opacity="0"></use></g></g><g><use xlink:href="#c1tabM90Qi" opacity="1" fill="#ffffff" fill-opacity="1"></use><g><use xlink:href="#c1tabM90Qi" opacity="1" fill-opacity="0" stroke="#000000" stroke-width="1" stroke-opacity="0"></use></g></g><g><use xlink:href="#drxhHbG4M" opacity="1" fill="#ffffff" fill-opacity="1"></use><g><use xlink:href="#drxhHbG4M" opacity="1" fill-opacity="0" stroke="#000000" stroke-width="1" stroke-opacity="0"></use></g></g><g><use xlink:href="#a2lMAyXYRe" opacity="1" fill="#ffffff" fill-opacity="1"></use><g><use xlink:href="#a2lMAyXYRe" opacity="1" fill-opacity="0" stroke="#000000" stroke-width="1" stroke-opacity="0"></use></g></g><g><use xlink:href="#c8NPoeUQQ" opacity="1" fill="#4d2878" fill-opacity="1"></use><g><use xlink:href="#c8NPoeUQQ" opacity="1" fill-opacity="0" stroke="#000000" stroke-width="1" stroke-opacity="0"></use></g></g></g></g></svg>